<svg xmlns="http://www.w3.org/2000/svg" xmlns:vectornator="http://vectornator.io"
    xml:space="preserve" stroke-miterlimit="10"
    style="fill-rule:nonzero;clip-rule:evenodd;stroke-linecap:round;stroke-linejoin:round"
    viewBox="0 0 24 24"><g vectornator:layerName="Senza Titolo" fill="#44964c"><path vectornator:layerName="path" d="M16.228.726c1.4 0 2.536 1.136 2.536 2.537v17.474c0 1.401-1.136 2.537-2.536 2.537H7.772a2.537 2.537 0 0 1-2.536-2.537V3.263C5.236 1.862 6.37.726 7.772.726h8.456Zm0 1.691H7.772a.846.846 0 0 0-.845.846v17.474c0 .467.378.846.845.846h8.456a.846.846 0 0 0 .845-.846V3.263a.846.846 0 0 0-.845-.846Zm-2.82 15.784a.846.846 0 0 1 .003 1.69l-2.819.005a.846.846 0 0 1-.003-1.691l2.819-.004Z"/><path vectornator:layerName="path 1" d="M14.66 3.675c.83 0 1.502.673 1.502 1.503v5.319c0 .83-.673 1.503-1.503 1.503H9.341c-.83 0-1.503-.673-1.503-1.503V5.178c0-.83.673-1.503 1.503-1.503h5.318Zm.268 7.586-2.685-2.63a.347.347 0 0 0-.447-.033l-.039.033-2.685 2.63a.81.81 0 0 0 .269.045h5.318a.808.808 0 0 0 .269-.045l-2.685-2.63 2.685 2.63Zm-.269-6.892H9.341a.81.81 0 0 0-.81.81v5.318c0 .096.017.189.048.274l2.693-2.636a1.04 1.04 0 0 1 1.397-.054l.059.054 2.693 2.637a.809.809 0 0 0 .048-.275V5.178a.81.81 0 0 0-.81-.809Z"/><path vectornator:layerName="path 2" d="M14.49 4.912a.151.151 0 0 1 .196.145V6.62a.379.379 0 1 1-.152-.303v-.806l-1.06.332v1.08a.379.379 0 1 1-.152-.303V5.388c0-.066.043-.125.107-.145l1.06-.33Zm-1.016.772 1.06-.332v-.295l-1.06.331v.296Zm-.379 1.012a.227.227 0 1 0 0 .455.227.227 0 0 0 0-.455Zm.985-.076a.227.227 0 1 0 .454 0 .227.227 0 0 0-.454 0Z"/></g></svg>