<svg xmlns="http://www.w3.org/2000/svg" xml:space="preserve" stroke-miterlimit="10"
    style="fill-rule:nonzero;clip-rule:evenodd;stroke-linecap:round;stroke-linejoin:round"
    viewBox="0 0 24 24"><clipPath id="a"><path d="M0 0h24v24H0z"/></clipPath><g clip-path="url(#a)"><path d="M0 0h24v24H0V0Z" opacity=".2"/><path fill="#44964c" d="M19.051.966c2.2 0 3.982 1.784 3.982 3.984v14.1c0 2.2-1.784 3.984-3.985 3.984H4.953A3.984 3.984 0 0 1 .967 19.05V4.95c0-2.2 1.784-3.984 3.985-3.984H19.05Zm.71 20.109-7.117-6.972a.92.92 0 0 0-1.185-.087l-.103.087-7.118 6.972c.23.08.47.12.714.12h14.097c.242 0 .483-.04.713-.12l-7.118-6.972 7.118 6.972Zm-.712-18.27H4.952a2.147 2.147 0 0 0-2.148 2.148V19.05c0 .254.045.5.128.726l7.138-6.987a2.757 2.757 0 0 1 3.703-.143l.157.143 7.138 6.99c.085-.234.128-.48.128-.73V4.95a2.147 2.147 0 0 0-2.148-2.144Z"/><path fill="#44964c" d="M18.6 4.245a.4.4 0 0 1 .52.384v4.144a1.005 1.005 0 1 1-.403-.804V5.833l-2.81.88v2.863a1.005 1.005 0 1 1-.403-.803V5.507c0-.175.114-.331.284-.384l2.81-.875.003-.003Zm-2.693 2.047 2.81-.88v-.783l-2.81.878v.785Zm-1.004 2.682a.603.603 0 1 0 0 1.206.603.603 0 0 0 0-1.206Zm2.61-.201a.602.602 0 1 0 1.204 0 .602.602 0 0 0-1.203 0Z"/></g></svg>